  0
SECTION
  2
HEADER
  9
$ACADVER
  1
AC1006
  9
$EXTMIN
 10
0.000000
 20
0.000000
 30
0.000000
  9
$EXTMAX
 10
2562.000000
 20
2579.000000
 30
0.000000
  0
ENDSEC
  0
SECTION
  2
ENTITIES
  0
POLYLINE
  8
0
 66
1
 70
1
  0
VERTEX
  8
0
 10
1227.000000
 20
2577.982245
 42
0.010089
  0
VERTEX
  8
0
 10
1166.156385
 20
2573.767366
 42
0.011289
  0
VERTEX
  8
0
 10
1107.778156
 20
2567.206371
 42
0.011510
  0
VERTEX
  8
0
 10
1050.809460
 20
2558.158079
 42
0.011438
  0
VERTEX
  8
0
 10
994.196997
 20
2546.481271
 42
0.023732
  0
VERTEX
  8
0
 10
879.322913
 20
2514.226379
 42
0.023346
  0
VERTEX
  8
0
 10
767.377783
 20
2471.080246
 42
0.023343
  0
VERTEX
  8
0
 10
659.927862
 20
2417.678501
 42
0.023710
  0
VERTEX
  8
0
 10
558.500000
 20
2354.746677
 42
0.008167
  0
VERTEX
  8
0
 10
523.912944
 20
2330.103087
 42
0.008145
  0
VERTEX
  8
0
 10
490.118367
 20
2304.321729
 42
0.008073
  0
VERTEX
  8
0
 10
456.889720
 20
2277.223114
 42
0.007688
  0
VERTEX
  8
0
 10
424.000000
 20
2248.628505
 42
0.010852
  0
VERTEX
  8
0
 10
405.417313
 20
2231.221828
 42
0.002838
  0
VERTEX
  8
0
 10
376.372907
 20
2202.482822
 42
0.002830
  0
VERTEX
  8
0
 10
347.671350
 20
2173.431747
 42
0.010997
  0
VERTEX
  8
0
 10
330.401565
 20
2154.956733
 42
0.011352
  0
VERTEX
  8
0
 10
289.396596
 20
2106.959704
 42
0.012062
  0
VERTEX
  8
0
 10
251.459635
 20
2058.095896
 42
0.012117
  0
VERTEX
  8
0
 10
216.081441
 20
2007.672699
 42
0.011693
  0
VERTEX
  8
0
 10
182.749408
 20
1955.000000
 42
0.028879
  0
VERTEX
  8
0
 10
114.840114
 20
1825.531224
 42
0.028607
  0
VERTEX
  8
0
 10
62.060811
 20
1688.696484
 42
0.028532
  0
VERTEX
  8
0
 10
25.129379
 20
1546.370535
 42
0.028373
  0
VERTEX
  8
0
 10
4.557052
 20
1400.500000
 42
0.004014
  0
VERTEX
  8
0
 10
2.428852
 20
1372.308635
 42
0.007812
  0
VERTEX
  8
0
 10
1.262866
 20
1349.773942
 42
0.006765
  0
VERTEX
  8
0
 10
0.709318
 20
1325.221485
 42
0.002294
  0
VERTEX
  8
0
 10
0.551327
 20
1289.500000
 42
0.002298
  0
VERTEX
  8
0
 10
0.721054
 20
1253.861956
 42
0.006703
  0
VERTEX
  8
0
 10
1.281059
 20
1229.267183
 42
0.007788
  0
VERTEX
  8
0
 10
2.445022
 20
1206.793601
 42
0.004136
  0
VERTEX
  8
0
 10
4.550029
 20
1179.000000
 42
0.047834
  0
VERTEX
  8
0
 10
49.117764
 20
933.328512
 42
0.048728
  0
VERTEX
  8
0
 10
139.409655
 20
702.205591
 42
0.048759
  0
VERTEX
  8
0
 10
272.657682
 20
493.057973
 42
0.048020
  0
VERTEX
  8
0
 10
444.500000
 20
312.496121
 42
0.059787
  0
VERTEX
  8
0
 10
697.118398
 20
141.615134
 42
0.059904
  0
VERTEX
  8
0
 10
982.830837
 20
35.492306
 42
0.059918
  0
VERTEX
  8
0
 10
1285.493958
 20
0.139356
 42
0.059867
  0
VERTEX
  8
0
 10
1588.000000
 20
37.538196
 42
0.041296
  0
VERTEX
  8
0
 10
1783.763170
 20
103.531337
 42
0.040573
  0
VERTEX
  8
0
 10
1967.242618
 20
201.112275
 42
0.040463
  0
VERTEX
  8
0
 10
2133.015245
 20
327.335847
 42
0.040577
  0
VERTEX
  8
0
 10
2276.124257
 20
478.500000
 42
0.018700
  0
VERTEX
  8
0
 10
2334.652574
 20
557.187508
 42
0.018892
  0
VERTEX
  8
0
 10
2386.928111
 20
639.767806
 42
0.018940
  0
VERTEX
  8
0
 10
2432.696117
 20
725.844162
 42
0.019033
  0
VERTEX
  8
0
 10
2471.738852
 20
815.000000
 42
0.024912
  0
VERTEX
  8
0
 10
2511.943933
 20
934.366614
 42
0.023723
  0
VERTEX
  8
0
 10
2540.836671
 20
1059.092956
 42
0.023875
  0
VERTEX
  8
0
 10
2557.631962
 20
1185.151161
 42
0.026118
  0
VERTEX
  8
0
 10
2561.640780
 20
1308.500000
 42
0.021576
  0
VERTEX
  8
0
 10
2554.108109
 20
1428.132961
 42
0.022809
  0
VERTEX
  8
0
 10
2536.333675
 20
1544.450033
 42
0.022940
  0
VERTEX
  8
0
 10
2508.161324
 20
1658.037103
 42
0.022394
  0
VERTEX
  8
0
 10
2469.512266
 20
1769.500000
 42
0.049331
  0
VERTEX
  8
0
 10
2353.562539
 20
1993.785807
 42
0.049106
  0
VERTEX
  8
0
 10
2195.770354
 20
2191.387335
 42
0.049115
  0
VERTEX
  8
0
 10
2002.503872
 20
2354.393050
 42
0.049387
  0
VERTEX
  8
0
 10
1781.500000
 20
2476.226603
 42
0.021293
  0
VERTEX
  8
0
 10
1678.671853
 20
2515.230811
 42
0.022159
  0
VERTEX
  8
0
 10
1574.245976
 20
2544.768645
 42
0.021896
  0
VERTEX
  8
0
 10
1466.443504
 20
2565.228937
 42
0.019756
  0
VERTEX
  8
0
 10
1353.500000
 20
2577.048640
 42
0.012087
  0
VERTEX
  8
0
 10
1331.239177
 20
2577.952768
 42
0.002260
  0
VERTEX
  8
0
 10
1290.402570
 20
2578.438767
 42
0.002277
  0
VERTEX
  8
0
 10
1249.552161
 20
2578.554217
 42
0.011815
  0
SEQEND
  0
POLYLINE
  8
0
 66
1
 70
1
  0
VERTEX
  8
0
 10
1363.000000
 20
2453.922512
 42
-0.038102
  0
VERTEX
  8
0
 10
1517.038970
 20
2433.266034
 42
-0.034687
  0
VERTEX
  8
0
 10
1671.228981
 20
2389.125317
 42
-0.034204
  0
VERTEX
  8
0
 10
1819.988018
 20
2323.309096
 42
-0.034566
  0
VERTEX
  8
0
 10
1957.836406
 20
2238.027111
 42
-0.015437
  0
VERTEX
  8
0
 10
2010.873871
 20
2197.371471
 42
-0.015273
  0
VERTEX
  8
0
 10
2061.495922
 20
2153.380944
 42
-0.015490
  0
VERTEX
  8
0
 10
2108.611998
 20
2107.054930
 42
-0.017149
  0
VERTEX
  8
0
 10
2151.137929
 20
2059.399606
 42
-0.004178
  0
VERTEX
  8
0
 10
2161.781545
 20
2046.396087
 42
-0.003161
  0
VERTEX
  8
0
 10
2173.254199
 20
2031.952264
 42
-0.000298
  0
VERTEX
  8
0
 10
2184.844616
 20
2017.151086
 42
-0.392365
  0
VERTEX
  8
0
 10
2184.788092
 20
2016.480374
 42
-0.236213
  0
VERTEX
  8
0
 10
2184.296169
 20
2016.341588
 42
-0.000189
  0
VERTEX
  8
0
 10
2171.359630
 20
2018.820380
 42
-0.001142
  0
VERTEX
  8
0
 10
2152.411257
 20
2022.503430
 42
-0.000173
  0
VERTEX
  8
0
 10
2114.500000
 20
2029.975881
 42
0.007133
  0
VERTEX
  8
0
 10
2059.773478
 20
2039.973407
 42
0.009638
  0
VERTEX
  8
0
 10
2010.013782
 20
2047.348805
 42
0.008497
  0
VERTEX
  8
0
 10
1955.442934
 20
2053.424522
 42
0.004039
  0
VERTEX
  8
0
 10
1885.000000
 20
2059.483967
 42
-0.001946
  0
VERTEX
  8
0
 10
1865.964428
 20
2061.041177
 42
-0.003553
  0
VERTEX
  8
0
 10
1850.443907
 20
2062.482841
 42
-0.002584
  0
VERTEX
  8
0
 10
1838.176121
 20
2063.774419
 42
-0.042712
  0
VERTEX
  8
0
 10
1834.144509
 20
2064.572527
 42
-0.070637
  0
VERTEX
  8
0
 10
1828.070204
 20
2067.298611
 42
-0.069141
  0
VERTEX
  8
0
 10
1822.944928
 20
2071.623887
 42
-0.049127
  0
VERTEX
  8
0
 10
1817.941361
 20
2078.434603
 42
-0.016909
  0
VERTEX
  8
0
 10
1812.056163
 20
2089.165983
 42
0.014773
  0
VERTEX
  8
0
 10
1805.091839
 20
2101.994803
 42
0.018031
  0
VERTEX
  8
0
 10
1797.803395
 20
2113.544215
 42
0.019005
  0
VERTEX
  8
0
 10
1790.071757
 20
2123.993649
 42
0.020715
  0
VERTEX
  8
0
 10
1781.777490
 20
2133.518624
 42
0.038254
  0
VERTEX
  8
0
 10
1764.599273
 20
2149.092717
 42
0.038018
  0
VERTEX
  8
0
 10
1745.214830
 20
2161.903619
 42
0.038494
  0
VERTEX
  8
0
 10
1724.362825
 20
2171.493071
 42
0.041597
  0
VERTEX
  8
0
 10
1702.816096
 20
2177.478254
 42
0.024676
  0
VERTEX
  8
0
 10
1686.461471
 20
2179.757281
 42
0.024541
  0
VERTEX
  8
0
 10
1669.931789
 20
2180.419586
 42
0.023168
  0
VERTEX
  8
0
 10
1652.559128
 20
2179.456984
 42
0.017603
  0
VERTEX
  8
0
 10
1633.662452
 20
2176.854111
 42
-0.005583
  0
VERTEX
  8
0
 10
1626.239119
 20
2175.649162
 42
-0.024387
  0
VERTEX
  8
0
 10
1621.813711
 20
2175.200742
 42
-0.034707
  0
VERTEX
  8
0
 10
1618.158993
 20
2175.263490
 42
-0.020822
  0
VERTEX
  8
0
 10
1613.851825
 20
2175.818677
 42
-0.014156
  0
VERTEX
  8
0
 10
1610.934670
 20
2176.404368
 42
-0.012564
  0
VERTEX
  8
0
 10
1607.935920
 20
2177.175119
 42
-0.012719
  0
VERTEX
  8
0
 10
1605.272005
 20
2178.005421
 42
-0.037314
  0
VERTEX
  8
0
 10
1603.504557
 20
2178.757214
 42
-0.071077
  0
VERTEX
  8
0
 10
1601.553327
 20
2180.146330
 42
-0.006470
  0
VERTEX
  8
0
 10
1597.271889
 20
2184.327383
 42
-0.008277
  0
VERTEX
  8
0
 10
1592.290565
 20
2189.487546
 42
-0.006385
  0
VERTEX
  8
0
 10
1587.025186
 20
2195.272175
 42
0.008732
  0
VERTEX
  8
0
 10
1552.825066
 20
2232.492463
 42
0.007209
  0
VERTEX
  8
0
 10
1515.118517
 20
2270.990009
 42
0.007251
  0
VERTEX
  8
0
 10
1476.609506
 20
2308.096925
 42
0.009250
  0
VERTEX
  8
0
 10
1440.000000
 20
2341.114591
 42
0.006480
  0
VERTEX
  8
0
 10
1410.620971
 20
2365.980912
 42
0.005293
  0
VERTEX
  8
0
 10
1378.572302
 20
2391.836668
 42
0.005344
  0
VERTEX
  8
0
 10
1346.409193
 20
2416.674053
 42
0.007170
  0
VERTEX
  8
0
 10
1316.703714
 20
2438.449045
 42
-0.005650
  0
VERTEX
  8
0
 10
1309.761677
 20
2443.505385
 42
-0.019049
  0
VERTEX
  8
0
 10
1305.392055
 20
2447.031003
 42
-0.029076
  0
VERTEX
  8
0
 10
1302.564913
 20
2449.800680
 42
-0.066544
  0
VERTEX
  8
0
 10
1300.872296
 20
2452.250321
 42
0.000000
  0
VERTEX
  8
0
 10
1298.837162
 20
2456.239512
 42
0.000000
  0
VERTEX
  8
0
 10
1322.168581
 20
2455.581496
 42
-0.001806
  0
VERTEX
  8
0
 10
1332.379908
 20
2455.256582
 42
-0.001297
  0
VERTEX
  8
0
 10
1343.787021
 20
2454.822738
 42
-0.001309
  0
VERTEX
  8
0
 10
1354.644220
 20
2454.353133
 42
-0.002823
  0
SEQEND
  0
POLYLINE
  8
0
 66
1
 70
1
  0
VERTEX
  8
0
 10
1174.500000
 20
2447.322788
 42
-0.047243
  0
VERTEX
  8
0
 10
1185.435929
 20
2441.821441
 42
-0.002856
  0
VERTEX
  8
0
 10
1216.461065
 20
2422.100593
 42
-0.004752
  0
VERTEX
  8
0
 10
1248.970612
 20
2400.734808
 42
-0.007424
  0
VERTEX
  8
0
 10
1276.500000
 20
2381.666281
 42
-0.010856
  0
VERTEX
  8
0
 10
1333.217291
 20
2339.230784
 42
-0.011807
  0
VERTEX
  8
0
 10
1386.442084
 20
2295.510627
 42
-0.011778
  0
VERTEX
  8
0
 10
1437.662005
 20
2249.224902
 42
-0.010690
  0
VERTEX
  8
0
 10
1488.363877
 20
2199.090378
 42
-0.004190
  0
VERTEX
  8
0
 10
1502.685861
 20
2184.059897
 42
-0.002761
  0
VERTEX
  8
0
 10
1518.916572
 20
2166.545073
 42
-0.002759
  0
VERTEX
  8
0
 10
1534.239890
 20
2149.638805
 42
-0.006501
  0
VERTEX
  8
0
 10
1545.435991
 20
2136.816685
 42
-0.028276
  0
VERTEX
  8
0
 10
1549.362890
 20
2131.632431
 42
-0.209925
  0
VERTEX
  8
0
 10
1549.897884
 20
2128.656681
 42
-0.075484
  0
VERTEX
  8
0
 10
1548.363513
 20
2124.887944
 42
-0.001851
  0
VERTEX
  8
0
 10
1538.701301
 20
2108.806266
 42
0.010625
  0
VERTEX
  8
0
 10
1532.306316
 20
2097.726666
 42
0.029062
  0
VERTEX
  8
0
 10
1528.422894
 20
2089.565160
 42
0.033070
  0
VERTEX
  8
0
 10
1525.793530
 20
2081.628012
 42
0.017588
  0
VERTEX
  8
0
 10
1523.547687
 20
2071.518799
 42
-0.067120
  0
VERTEX
  8
0
 10
1518.370232
 20
2055.762223
 42
-0.095718
  0
VERTEX
  8
0
 10
1509.570623
 20
2044.001696
 42
-0.084061
  0
VERTEX
  8
0
 10
1496.090210
 20
2035.364109
 42
-0.041393
  0
VERTEX
  8
0
 10
1476.701877
 20
2028.952363
 42
0.000991
  0
VERTEX
  8
0
 10
1446.419265
 20
2021.585874
 42
0.002840
  0
VERTEX
  8
0
 10
1425.419707
 20
2016.306831
 42
0.003492
  0
VERTEX
  8
0
 10
1407.032678
 20
2011.436196
 42
0.002317
  0
VERTEX
  8
0
 10
1386.000000
 20
2005.602456
 42
-0.001464
  0
VERTEX
  8
0
 10
1352.226465
 20
1996.172764
 42
-0.009267
  0
VERTEX
  8
0
 10
1334.939588
 20
1991.743802
 42
-0.017727
  0
VERTEX
  8
0
 10
1324.170863
 20
1989.596447
 42
-0.057518
  0
VERTEX
  8
0
 10
1316.905885
 20
1989.258629
 42
-0.047722
  0
VERTEX
  8
0
 10
1310.333944
 20
1990.344945
 42
-0.048564
  0
VERTEX
  8
0
 10
1304.127623
 20
1992.654414
 42
-0.042988
  0
VERTEX
  8
0
 10
1297.873515
 20
1996.396638
 42
-0.025938
  0
VERTEX
  8
0
 10
1291.135900
 20
2001.811755
 42
0.036110
  0
VERTEX
  8
0
 10
1260.429287
 20
2025.480271
 42
0.051962
  0
VERTEX
  8
0
 10
1230.021480
 20
2041.336345
 42
0.056673
  0
VERTEX
  8
0
 10
1199.161066
 20
2049.665011
 42
0.056198
  0
VERTEX
  8
0
 10
1167.128959
 20
2050.886001
 42
0.044108
  0
VERTEX
  8
0
 10
1143.027592
 20
2046.938728
 42
0.040002
  0
VERTEX
  8
0
 10
1119.156785
 20
2038.750220
 42
0.037186
  0
VERTEX
  8
0
 10
1095.324635
 20
2026.198551
 42
0.028646
  0
VERTEX
  8
0
 10
1071.335906
 20
2009.203903
 42
0.003330
  0
VERTEX
  8
0
 10
1067.468616
 20
2006.074611
 42
0.004387
  0
VERTEX
  8
0
 10
1063.986142
 20
2003.166628
 42
0.003209
  0
VERTEX
  8
0
 10
1061.108378
 20
2000.688442
 42
0.041879
  0
VERTEX
  8
0
 10
1060.127555
 20
1999.676408
 42
-0.039505
  0
VERTEX
  8
0
 10
1059.511757
 20
1999.034960
 42
-0.038530
  0
VERTEX
  8
0
 10
1058.797826
 20
1998.492445
 42
-0.041172
  0
VERTEX
  8
0
 10
1058.095644
 20
1998.117471
 42
-0.102402
  0
VERTEX
  8
0
 10
1057.528081
 20
1998.000000
 42
-0.099679
  0
VERTEX
  8
0
 10
1056.673763
 20
1998.172024
 42
-0.002514
  0
VERTEX
  8
0
 10
1053.018837
 20
1999.727777
 42
-0.005289
  0
VERTEX
  8
0
 10
1048.741237
 20
2001.627956
 42
-0.003570
  0
VERTEX
  8
0
 10
1043.900526
 20
2003.881794
 42
0.014409
  0
VERTEX
  8
0
 10
977.246947
 20
2033.175070
 42
0.011427
  0
VERTEX
  8
0
 10
903.684569
 20
2061.066438
 42
0.011228
  0
VERTEX
  8
0
 10
827.333693
 20
2086.122615
 42
0.012327
  0
VERTEX
  8
0
 10
752.262745
 20
2106.898236
 42
0.009924
  0
VERTEX
  8
0
 10
692.574539
 20
2120.590146
 42
0.008892
  0
VERTEX
  8
0
 10
630.169384
 20
2132.453431
 42
0.009074
  0
VERTEX
  8
0
 10
568.980099
 20
2141.822016
 42
0.012038
  0
VERTEX
  8
0
 10
513.000000
 20
2147.988086
 42
-0.001838
  0
VERTEX
  8
0
 10
507.962399
 20
2148.439178
 42
-0.002121
  0
VERTEX
  8
0
 10
503.162898
 20
2148.907290
 42
-0.001898
  0
VERTEX
  8
0
 10
499.099803
 20
2149.336576
 42
-0.012390
  0
VERTEX
  8
0
 10
497.065184
 20
2149.610527
 42
0.000000
  0
VERTEX
  8
0
 10
493.630368
 20
2150.159970
 42
0.000000
  0
VERTEX
  8
0
 10
497.051835
 20
2152.829985
 42
0.004752
  0
VERTEX
  8
0
 10
499.446057
 20
2154.735253
 42
0.000175
  0
VERTEX
  8
0
 10
508.423735
 20
2162.025134
 42
0.000319
  0
VERTEX
  8
0
 10
519.031342
 20
2170.655942
 42
0.000224
  0
VERTEX
  8
0
 10
530.960070
 20
2180.383237
 42
-0.001106
  0
VERTEX
  8
0
 10
543.894872
 20
2190.893008
 42
-0.000950
  0
VERTEX
  8
0
 10
557.550477
 20
2201.895549
 42
-0.000956
  0
VERTEX
  8
0
 10
569.988671
 20
2211.839266
 42
-0.002750
  0
VERTEX
  8
0
 10
578.669399
 20
2218.674222
 42
-0.017711
  0
VERTEX
  8
0
 10
641.893604
 20
2264.392920
 42
-0.017351
  0
VERTEX
  8
0
 10
708.620574
 20
2305.852665
 42
-0.017314
  0
VERTEX
  8
0
 10
778.208030
 20
2342.669604
 42
-0.017448
  0
VERTEX
  8
0
 10
850.000000
 20
2374.482143
 42
-0.015707
  0
VERTEX
  8
0
 10
916.869543
 20
2398.953251
 42
-0.015688
  0
VERTEX
  8
0
 10
985.170125
 20
2419.188670
 42
-0.015738
  0
VERTEX
  8
0
 10
1054.386544
 20
2435.044107
 42
-0.016059
  0
VERTEX
  8
0
 10
1124.000000
 20
2446.392447
 42
0.000251
  0
VERTEX
  8
0
 10
1131.687737
 20
2447.397402
 42
0.000337
  0
VERTEX
  8
0
 10
1138.653125
 20
2448.316257
 42
0.000230
  0
VERTEX
  8
0
 10
1144.496815
 20
2449.093887
 42
0.003580
  0
VERTEX
  8
0
 10
1146.500000
 20
2449.376006
 42
-0.038869
  0
VERTEX
  8
0
 10
1152.791963
 20
2449.813215
 42
-0.016220
  0
VERTEX
  8
0
 10
1161.296462
 20
2449.466373
 42
-0.015349
  0
VERTEX
  8
0
 10
1169.533595
 20
2448.607494
 42
-0.059340
  0
SEQEND
  0
POLYLINE
  8
0
 66
1
 70
1
  0
VERTEX
  8
0
 10
489.000000
 20
2078.977323
 42
-0.018961
  0
VERTEX
  8
0
 10
620.656353
 20
2062.674585
 42
-0.020798
  0
VERTEX
  8
0
 10
746.649764
 20
2036.779048
 42
-0.021201
  0
VERTEX
  8
0
 10
867.801540
 20
2001.061661
 42
-0.021478
  0
VERTEX
  8
0
 10
984.957318
 20
1955.346297
 42
-0.003167
  0
VERTEX
  8
0
 10
993.535665
 20
1951.501827
 42
-0.003890
  0
VERTEX
  8
0
 10
1001.493712
 20
1947.799612
 42
-0.003240
  0
VERTEX
  8
0
 10
1008.133659
 20
1944.594651
 42
-0.027962
  0
VERTEX
  8
0
 10
1011.000000
 20
1942.983483
 42
-0.027813
  0
VERTEX
  8
0
 10
1015.024202
 20
1940.088608
 42
-0.030267
  0
VERTEX
  8
0
 10
1018.583806
 20
1936.840122
 42
-0.032790
  0
VERTEX
  8
0
 10
1021.356056
 20
1933.581945
 42
-0.069838
  0
VERTEX
  8
0
 10
1022.938666
 20
1930.684900
 42
-0.070549
  0
VERTEX
  8
0
 10
1023.833268
 20
1926.678148
 42
-0.036992
  0
VERTEX
  8
0
 10
1023.858117
 20
1921.560420
 42
-0.033151
  0
VERTEX
  8
0
 10
1023.069957
 20
1915.773890
 42
-0.026875
  0
VERTEX
  8
0
 10
1021.487234
 20
1909.711905
 42
0.024434
  0
VERTEX
  8
0
 10
1019.730887
 20
1903.116735
 42
0.049671
  0
VERTEX
  8
0
 10
1019.131096
 20
1897.791020
 42
0.053333
  0
VERTEX
  8
0
 10
1019.609355
 20
1892.700577
 42
0.032716
  0
VERTEX
  8
0
 10
1021.192954
 20
1886.880272
 42
-0.023032
  0
VERTEX
  8
0
 10
1022.248457
 20
1883.277621
 42
-0.025616
  0
VERTEX
  8
0
 10
1022.924611
 20
1879.718239
 42
-0.021877
  0
VERTEX
  8
0
 10
1023.301595
 20
1875.665763
 42
-0.010827
  0
VERTEX
  8
0
 10
1023.442954
 20
1870.500000
 42
-0.007565
  0
VERTEX
  8
0
 10
1023.386201
 20
1864.478697
 42
-0.040492
  0
VERTEX
  8
0
 10
1023.040695
 20
1861.215744
 42
-0.056407
  0
VERTEX
  8
0
 10
1022.219937
 20
1858.554245
 42
-0.023517
  0
VERTEX
  8
0
 10
1020.553356
 20
1855.180705
 42
-0.055228
  0
VERTEX
  8
0
 10
1016.358129
 20
1849.257025
 42
-0.031986
  0
VERTEX
  8
0
 10
1010.149934
 20
1843.111967
 42
-0.024879
  0
VERTEX
  8
0
 10
1001.561310
 20
1836.355130
 42
-0.011867
  0
VERTEX
  8
0
 10
989.905182
 20
1828.498107
 42
0.008480
  0
VERTEX
  8
0
 10
935.777746
 20
1792.543301
 42
0.010169
  0
VERTEX
  8
0
 10
886.132068
 20
1756.827689
 42
0.010386
  0
VERTEX
  8
0
 10
838.891281
 20
1719.803417
 42
0.009628
  0
VERTEX
  8
0
 10
792.000000
 20
1679.923332
 42
0.002864
  0
VERTEX
  8
0
 10
775.707954
 20
1665.350404
 42
0.005329
  0
VERTEX
  8
0
 10
762.694725
 20
1653.320710
 42
0.004571
  0
VERTEX
  8
0
 10
748.699645
 20
1639.859809
 42
0.001568
  0
VERTEX
  8
0
 10
728.669276
 20
1620.114838
 42
0.011651
  0
VERTEX
  8
0
 10
674.985237
 20
1564.321892
 42
0.013261
  0
VERTEX
  8
0
 10
626.295602
 20
1508.393560
 42
0.013109
  0
VERTEX
  8
0
 10
580.162674
 20
1449.389252
 42
0.010894
  0
VERTEX
  8
0
 10
534.157063
 20
1384.340746
 42
-0.018369
  0
VERTEX
  8
0
 10
526.932587
 20
1374.443064
 42
-0.031600
  0
VERTEX
  8
0
 10
520.124890
 20
1366.842673
 42
-0.038320
  0
VERTEX
  8
0
 10
513.617760
 20
1361.355365
 42
-0.063601
  0
VERTEX
  8
0
 10
507.317030
 20
1357.938220
 42
-0.043910
  0
VERTEX
  8
0
 10
502.430395
 20
1356.521664
 42
-0.035643
  0
VERTEX
  8
0
 10
497.014924
 20
1355.851462
 42
-0.015906
  0
VERTEX
  8
0
 10
488.515682
 20
1355.680898
 42
-0.001852
  0
VERTEX
  8
0
 10
469.500000
 20
1355.974681
 42
0.009629
  0
VERTEX
  8
0
 10
461.905138
 20
1355.973872
 42
0.019940
  0
VERTEX
  8
0
 10
455.985030
 20
1355.622756
 42
0.017669
  0
VERTEX
  8
0
 10
449.679614
 20
1354.769860
 42
0.006055
  0
VERTEX
  8
0
 10
440.611463
 20
1353.101997
 42
-0.005712
  0
VERTEX
  8
0
 10
424.703009
 20
1350.164718
 42
-0.017517
  0
VERTEX
  8
0
 10
413.845056
 20
1348.677452
 42
-0.025488
  0
VERTEX
  8
0
 10
405.591602
 20
1348.263337
 42
-0.038369
  0
VERTEX
  8
0
 10
398.411957
 20
1348.821110
 42
-0.034120
  0
VERTEX
  8
0
 10
390.684010
 20
1350.569075
 42
-0.089699
  0
VERTEX
  8
0
 10
385.636446
 20
1353.130374
 42
-0.061989
  0
VERTEX
  8
0
 10
380.798562
 20
1357.843290
 42
-0.010328
  0
VERTEX
  8
0
 10
372.886240
 20
1368.165320
 42
-0.015154
  0
VERTEX
  8
0
 10
326.026137
 20
1436.214665
 42
-0.014993
  0
VERTEX
  8
0
 10
283.199632
 20
1507.215437
 42
-0.014918
  0
VERTEX
  8
0
 10
244.502971
 20
1581.014627
 42
-0.014640
  0
VERTEX
  8
0
 10
210.018011
 20
1657.449456
 42
-0.005784
  0
VERTEX
  8
0
 10
203.164337
 20
1674.461513
 42
-0.026614
  0
VERTEX
  8
0
 10
199.840110
 20
1684.553612
 42
-0.043250
  0
VERTEX
  8
0
 10
198.430232
 20
1692.366424
 42
-0.039884
  0
VERTEX
  8
0
 10
198.329371
 20
1700.523419
 42
-0.040638
  0
VERTEX
  8
0
 10
199.458169
 20
1708.064015
 42
-0.022009
  0
VERTEX
  8
0
 10
201.996329
 20
1717.100118
 42
-0.014588
  0
VERTEX
  8
0
 10
206.398289
 20
1729.271835
 42
-0.004402
  0
VERTEX
  8
0
 10
213.784699
 20
1747.500000
 42
-0.019069
  0
VERTEX
  8
0
 10
249.609055
 20
1825.215966
 42
-0.019410
  0
VERTEX
  8
0
 10
291.055227
 20
1899.506361
 42
-0.019565
  0
VERTEX
  8
0
 10
337.789949
 20
1969.787615
 42
-0.020142
  0
VERTEX
  8
0
 10
389.448700
 20
2035.499940
 42
-0.002265
  0
VERTEX
  8
0
 10
404.331331
 20
2052.778501
 42
-0.017364
  0
VERTEX
  8
0
 10
411.630118
 20
2060.608629
 42
-0.036940
  0
VERTEX
  8
0
 10
416.924910
 20
2065.177495
 42
-0.045320
  0
VERTEX
  8
0
 10
422.500000
 20
2068.576538
 42
-0.038557
  0
VERTEX
  8
0
 10
428.728261
 20
2071.063139
 42
-0.004623
  0
VERTEX
  8
0
 10
442.917371
 20
2075.352027
 42
-0.005010
  0
VERTEX
  8
0
 10
457.152326
 20
2079.357162
 42
-0.031971
  0
VERTEX
  8
0
 10
464.500000
 20
2080.849115
 42
-0.052868
  0
VERTEX
  8
0
 10
465.278013
 20
2080.873061
 42
-0.000346
  0
VERTEX
  8
0
 10
472.109375
 20
2080.355896
 42
-0.001379
  0
VERTEX
  8
0
 10
479.920079
 20
2079.737494
 42
-0.000880
  0
SEQEND
  0
POLYLINE
  8
0
 66
1
 70
1
  0
VERTEX
  8
0
 10
1903.000000
 20
1990.432424
 42
-0.010874
  0
VERTEX
  8
0
 10
1963.056714
 20
1985.233135
 42
-0.011300
  0
VERTEX
  8
0
 10
2022.062888
 20
1977.476607
 42
-0.011316
  0
VERTEX
  8
0
 10
2080.576793
 20
1967.074504
 42
-0.010979
  0
VERTEX
  8
0
 10
2139.157419
 20
1953.942671
 42
-0.006992
  0
VERTEX
  8
0
 10
2171.510950
 20
1945.458405
 42
-0.005622
  0
VERTEX
  8
0
 10
2206.067353
 20
1935.458326
 42
-0.004049
  0
VERTEX
  8
0
 10
2237.158043
 20
1925.805701
 42
-0.043777
  0
VERTEX
  8
0
 10
2249.281264
 20
1920.728201
 42
-0.057703
  0
VERTEX
  8
0
 10
2255.867641
 20
1916.227966
 42
-0.041537
  0
VERTEX
  8
0
 10
2262.091749
 20
1909.848682
 42
-0.029914
  0
VERTEX
  8
0
 10
2268.830480
 20
1900.611175
 42
-0.011215
  0
VERTEX
  8
0
 10
2277.185317
 20
1886.923039
 42
-0.015971
  0
VERTEX
  8
0
 10
2319.086747
 20
1809.050311
 42
-0.017739
  0
VERTEX
  8
0
 10
2354.387948
 20
1731.305100
 42
-0.018135
  0
VERTEX
  8
0
 10
2383.412121
 20
1652.887145
 42
-0.018437
  0
VERTEX
  8
0
 10
2406.500989
 20
1573.000000
 42
-0.010618
  0
VERTEX
  8
0
 10
2417.773833
 20
1523.346721
 42
-0.011774
  0
VERTEX
  8
0
 10
2426.506298
 20
1474.936355
 42
-0.011403
  0
VERTEX
  8
0
 10
2433.166236
 20
1424.819215
 42
-0.008839
  0
VERTEX
  8
0
 10
2438.203460
 20
1370.000000
 42
-0.015909
  0
VERTEX
  8
0
 10
2439.270089
 20
1344.701913
 42
-0.002581
  0
VERTEX
  8
0
 10
2439.523964
 20
1295.497668
 42
-0.002581
  0
VERTEX
  8
0
 10
2439.269827
 20
1246.293409
 42
-0.015914
  0
VERTEX
  8
0
 10
2438.203017
 20
1221.000000
 42
-0.002742
  0
VERTEX
  8
0
 10
2436.416547
 20
1198.565398
 42
-0.004871
  0
VERTEX
  8
0
 10
2434.663596
 20
1180.108045
 42
-0.005136
  0
VERTEX
  8
0
 10
2432.620128
 20
1162.370942
 42
-0.003502
  0
VERTEX
  8
0
 10
2429.948936
 20
1142.249152
 42
0.002297
  0
VERTEX
  8
0
 10
2428.325504
 20
1130.241914
 42
0.001940
  0
VERTEX
  8
0
 10
2426.715595
 20
1117.523803
 42
0.001956
  0
VERTEX
  8
0
 10
2425.337652
 20
1105.912684
 42
0.005452
  0
VERTEX
  8
0
 10
2424.491301
 20
1097.749152
 42
-0.011406
  0
VERTEX
  8
0
 10
2422.463673
 20
1080.228084
 42
-0.027651
  0
VERTEX
  8
0
 10
2419.962378
 20
1067.450524
 42
-0.034184
  0
VERTEX
  8
0
 10
2416.457866
 20
1056.765977
 42
-0.029277
  0
VERTEX
  8
0
 10
2411.372496
 20
1046.070184
 42
-0.038979
  0
VERTEX
  8
0
 10
2403.777594
 20
1034.484853
 42
-0.035420
  0
VERTEX
  8
0
 10
2394.249047
 20
1023.816055
 42
-0.030131
  0
VERTEX
  8
0
 10
2381.904912
 20
1013.190002
 42
-0.016682
  0
VERTEX
  8
0
 10
2365.682345
 20
1001.678547
 42
-0.011676
  0
VERTEX
  8
0
 10
2307.257835
 20
965.014774
 42
-0.010089
  0
VERTEX
  8
0
 10
2244.296860
 20
929.224735
 42
-0.010189
  0
VERTEX
  8
0
 10
2180.729661
 20
896.425972
 42
-0.012805
  0
VERTEX
  8
0
 10
2120.500000
 20
868.777392
 42
-0.006027
  0
VERTEX
  8
0
 10
2092.779762
 20
857.295402
 42
-0.004802
  0
VERTEX
  8
0
 10
2062.613373
 20
845.558901
 42
-0.001028
  0
VERTEX
  8
0
 10
2032.787904
 20
834.353630
 42
-0.182934
  0
VERTEX
  8
0
 10
2029.481708
 20
834.368646
 42
-0.133484
  0
VERTEX
  8
0
 10
2028.703716
 20
834.938047
 42
-0.002955
  0
VERTEX
  8
0
 10
2025.794293
 20
838.627937
 42
-0.006495
  0
VERTEX
  8
0
 10
2022.449143
 20
843.039428
 42
-0.004319
  0
VERTEX
  8
0
 10
2018.723761
 20
848.179573
 42
0.006829
  0
VERTEX
  8
0
 10
2010.074587
 20
859.988205
 42
0.029962
  0
VERTEX
  8
0
 10
2004.470416
 20
866.564803
 42
0.042466
  0
VERTEX
  8
0
 10
1999.113757
 20
871.265570
 42
0.024693
  0
VERTEX
  8
0
 10
1991.981515
 20
876.000000
 42
-0.032575
  0
VERTEX
  8
0
 10
1981.453540
 20
883.229986
 42
-0.052004
  0
VERTEX
  8
0
 10
1973.631533
 20
890.827068
 42
-0.057233
  0
VERTEX
  8
0
 10
1968.064389
 20
899.292376
 42
-0.051431
  0
VERTEX
  8
0
 10
1964.319020
 20
909.105177
 42
-0.051938
  0
VERTEX
  8
0
 10
1962.939286
 20
917.761424
 42
-0.020322
  0
VERTEX
  8
0
 10
1962.774052
 20
929.874245
 42
-0.015901
  0
VERTEX
  8
0
 10
1963.700711
 20
945.616190
 42
-0.007360
  0
VERTEX
  8
0
 10
1965.855459
 20
966.000000
 42
0.028169
  0
VERTEX
  8
0
 10
1977.855704
 20
1154.084716
 42
0.029891
  0
VERTEX
  8
0
 10
1968.183870
 20
1338.595748
 42
0.030168
  0
VERTEX
  8
0
 10
1936.752597
 20
1519.045251
 42
0.029877
  0
VERTEX
  8
0
 10
1883.764509
 20
1695.000000
 42
0.006587
  0
VERTEX
  8
0
 10
1867.233714
 20
1738.206339
 42
0.008092
  0
VERTEX
  8
0
 10
1850.623707
 20
1778.072195
 42
0.007735
  0
VERTEX
  8
0
 10
1832.112303
 20
1818.818865
 42
0.005210
  0
VERTEX
  8
0
 10
1809.780686
 20
1864.776720
 42
-0.001469
  0
VERTEX
  8
0
 10
1798.797996
 20
1886.955206
 42
-0.007351
  0
VERTEX
  8
0
 10
1792.862899
 20
1899.491908
 42
-0.009776
  0
VERTEX
  8
0
 10
1789.366437
 20
1907.582944
 42
-0.091862
  0
VERTEX
  8
0
 10
1788.597882
 20
1911.276720
 42
-0.080794
  0
VERTEX
  8
0
 10
1789.048113
 20
1914.487719
 42
-0.023740
  0
VERTEX
  8
0
 10
1790.750741
 20
1919.180988
 42
-0.013642
  0
VERTEX
  8
0
 10
1793.973032
 20
1926.343271
 42
-0.002689
  0
VERTEX
  8
0
 10
1800.171883
 20
1939.000000
 42
-0.003588
  0
VERTEX
  8
0
 10
1809.263981
 20
1956.988850
 42
-0.005695
  0
VERTEX
  8
0
 10
1817.333627
 20
1972.244446
 42
-0.004149
  0
VERTEX
  8
0
 10
1824.116433
 20
1984.478289
 42
-0.062364
  0
VERTEX
  8
0
 10
1827.017163
 20
1988.381572
 42
-0.116551
  0
VERTEX
  8
0
 10
1830.694815
 20
1990.765220
 42
-0.054684
  0
VERTEX
  8
0
 10
1836.242351
 20
1992.086130
 42
-0.030761
  0
VERTEX
  8
0
 10
1844.867342
 20
1992.630167
 42
-0.007019
  0
VERTEX
  8
0
 10
1859.500000
 20
1992.446574
 42
-0.003164
  0
VERTEX
  8
0
 10
1869.162363
 20
1992.128460
 42
-0.001758
  0
VERTEX
  8
0
 10
1880.940625
 20
1991.624584
 42
-0.001753
  0
VERTEX
  8
0
 10
1892.861092
 20
1991.030758
 42
-0.002833
  0
SEQEND
  0
POLYLINE
  8
0
 66
1
 70
1
  0
VERTEX
  8
0
 10
1516.205272
 20
1961.445724
 42
-0.060641
  0
VERTEX
  8
0
 10
1521.072037
 20
1959.097632
 42
-0.048655
  0
VERTEX
  8
0
 10
1525.641627
 20
1955.492980
 42
-0.038052
  0
VERTEX
  8
0
 10
1530.339480
 20
1950.239267
 42
-0.017652
  0
VERTEX
  8
0
 10
1535.647877
 20
1942.775730
 42
0.036590
  0
VERTEX
  8
0
 10
1557.109871
 20
1914.897354
 42
0.050151
  0
VERTEX
  8
0
 10
1580.446370
 20
1893.531179
 42
0.053891
  0
VERTEX
  8
0
 10
1606.120318
 20
1878.368994
 42
0.053314
  0
VERTEX
  8
0
 10
1634.533294
 20
1868.976927
 42
0.033347
  0
VERTEX
  8
0
 10
1647.515422
 20
1867.067265
 42
0.014072
  0
VERTEX
  8
0
 10
1665.126450
 20
1866.164063
 42
0.014097
  0
VERTEX
  8
0
 10
1683.492492
 20
1866.257595
 42
0.022433
  0
VERTEX
  8
0
 10
1699.154199
 20
1867.483950
 42
-0.007381
  0
VERTEX
  8
0
 10
1704.835825
 20
1868.101347
 42
-0.008449
  0
VERTEX
  8
0
 10
1710.282835
 20
1868.519309
 42
-0.007745
  0
VERTEX
  8
0
 10
1714.906253
 20
1868.723771
 42
-0.046851
  0
VERTEX
  8
0
 10
1717.298875
 20
1868.568199
 42
-0.052386
  0
VERTEX
  8
0
 10
1721.288463
 20
1867.493025
 42
-0.028954
  0
VERTEX
  8
0
 10
1725.890113
 20
1865.405909
 42
-0.028956
  0
VERTEX
  8
0
 10
1730.217945
 20
1862.802278
 42
-0.052590
  0
VERTEX
  8
0
 10
1733.360471
 20
1860.130681
 42
-0.070145
  0
VERTEX
  8
0
 10
1736.726319
 20
1855.426706
 42
-0.001971
  0
VERTEX
  8
0
 10
1748.188201
 20
1833.252207
 42
-0.004435
  0
VERTEX
  8
0
 10
1760.164679
 20
1809.335869
 42
-0.005240
  0
VERTEX
  8
0
 10
1771.052668
 20
1786.500000
 42
-0.020440
  0
VERTEX
  8
0
 10
1818.756473
 20
1671.611110
 42
-0.021163
  0
VERTEX
  8
0
 10
1856.310241
 20
1554.520894
 42
-0.021174
  0
VERTEX
  8
0
 10
1883.814231
 20
1434.735850
 42
-0.020512
  0
VERTEX
  8
0
 10
1901.434652
 20
1311.780183
 42
-0.005751
  0
VERTEX
  8
0
 10
1905.022372
 20
1271.942936
 42
-0.007572
  0
VERTEX
  8
0
 10
1907.325658
 20
1235.531056
 42
-0.007280
  0
VERTEX
  8
0
 10
1908.583660
 20
1197.957477
 42
-0.004727
  0
VERTEX
  8
0
 10
1908.994515
 20
1154.500000
 42
-0.004578
  0
VERTEX
  8
0
 10
1908.608664
 20
1112.354543
 42
-0.006910
  0
VERTEX
  8
0
 10
1907.429407
 20
1075.663774
 42
-0.007246
  0
VERTEX
  8
0
 10
1905.292947
 20
1040.358478
 42
-0.005845
  0
VERTEX
  8
0
 10
1902.005376
 20
1002.500000
 42
-0.008064
  0
VERTEX
  8
0
 10
1900.012685
 20
985.163259
 42
-0.004953
  0
VERTEX
  8
0
 10
1897.134334
 20
964.807669
 42
-0.000715
  0
VERTEX
  8
0
 10
1893.920109
 20
943.797679
 42
-0.370011
  0
VERTEX
  8
0
 10
1892.989771
 20
943.000000
 42
-0.322476
  0
VERTEX
  8
0
 10
1892.635097
 20
943.255297
 42
-0.000163
  0
VERTEX
  8
0
 10
1888.030457
 20
957.026562
 42
-0.001962
  0
VERTEX
  8
0
 10
1882.949159
 20
972.440963
 42
-0.001184
  0
VERTEX
  8
0
 10
1877.041121
 20
990.750000
 42
0.001175
  0
VERTEX
  8
0
 10
1862.253460
 20
1036.579937
 42
0.001466
  0
VERTEX
  8
0
 10
1848.295359
 20
1079.069812
 42
0.001515
  0
VERTEX
  8
0
 10
1836.334236
 20
1114.761662
 42
0.005721
  0
VERTEX
  8
0
 10
1828.521940
 20
1137.000000
 42
0.014577
  0
VERTEX
  8
0
 10
1795.407819
 20
1220.287444
 42
0.014377
  0
VERTEX
  8
0
 10
1757.353697
 20
1301.895216
 42
0.014333
  0
VERTEX
  8
0
 10
1714.548094
 20
1381.428683
 42
0.014269
  0
VERTEX
  8
0
 10
1667.195099
 20
1458.500000
 42
0.019709
  0
VERTEX
  8
0
 10
1599.556327
 20
1553.466465
 42
0.018633
  0
VERTEX
  8
0
 10
1523.428329
 20
1644.666230
 42
0.018668
  0
VERTEX
  8
0
 10
1440.877407
 20
1729.772196
 42
0.019984
  0
VERTEX
  8
0
 10
1354.000000
 20
1806.484997
 42
-0.002622
  0
VERTEX
  8
0
 10
1342.146966
 20
1816.240380
 42
-0.014314
  0
VERTEX
  8
0
 10
1335.917130
 20
1821.731950
 42
-0.026204
  0
VERTEX
  8
0
 10
1331.966524
 20
1825.828392
 42
-0.035296
  0
VERTEX
  8
0
 10
1328.873220
 20
1829.945781
 42
-0.070125
  0
VERTEX
  8
0
 10
1326.662050
 20
1834.719983
 42
-0.075459
  0
VERTEX
  8
0
 10
1325.930233
 20
1839.799658
 42
-0.064163
  0
VERTEX
  8
0
 10
1326.711691
 20
1845.523009
 42
-0.034633
  0
VERTEX
  8
0
 10
1329.041644
 20
1852.257383
 42
0.027745
  0
VERTEX
  8
0
 10
1331.302553
 20
1858.512254
 42
0.032904
  0
VERTEX
  8
0
 10
1332.707700
 20
1864.634987
 42
0.034878
  0
VERTEX
  8
0
 10
1333.242265
 20
1870.553467
 42
0.040443
  0
VERTEX
  8
0
 10
1332.900389
 20
1876.198041
 42
-0.032275
  0
VERTEX
  8
0
 10
1332.077008
 20
1886.897069
 42
-0.042761
  0
VERTEX
  8
0
 10
1332.790942
 20
1896.634150
 42
-0.047689
  0
VERTEX
  8
0
 10
1335.005369
 20
1905.165321
 42
-0.063861
  0
VERTEX
  8
0
 10
1338.670526
 20
1912.260471
 42
-0.056140
  0
VERTEX
  8
0
 10
1342.408525
 20
1916.552368
 42
-0.031989
  0
VERTEX
  8
0
 10
1347.772451
 20
1920.873586
 42
-0.030290
  0
VERTEX
  8
0
 10
1354.097338
 20
1924.783097
 42
-0.031410
  0
VERTEX
  8
0
 10
1360.773673
 20
1927.847205
 42
-0.029489
  0
VERTEX
  8
0
 10
1369.292814
 20
1930.562159
 42
-0.000394
  0
VERTEX
  8
0
 10
1422.849204
 20
1944.166905
 42
-0.000969
  0
VERTEX
  8
0
 10
1473.003539
 20
1956.762006
 42
-0.008791
  0
VERTEX
  8
0
 10
1495.000000
 20
1961.831662
 42
-0.031088
  0
VERTEX
  8
0
 10
1500.468104
 20
1962.640101
 42
-0.025712
  0
VERTEX
  8
0
 10
1506.355063
 20
1962.835704
 42
-0.026533
  0
VERTEX
  8
0
 10
1511.882798
 20
1962.441177
 42
-0.051067
  0
SEQEND
  0
POLYLINE
  8
0
 66
1
 70
1
  0
VERTEX
  8
0
 10
1062.328611
 20
1782.196816
 42
0.022729
  0
VERTEX
  8
0
 10
1084.242080
 20
1766.054889
 42
0.028066
  0
VERTEX
  8
0
 10
1106.082377
 20
1753.160780
 42
0.030117
  0
VERTEX
  8
0
 10
1127.754482
 20
1743.560906
 42
0.036102
  0
VERTEX
  8
0
 10
1149.164082
 20
1737.297847
 42
0.040177
  0
VERTEX
  8
0
 10
1160.397985
 20
1735.805047
 42
0.013216
  0
VERTEX
  8
0
 10
1177.077129
 20
1735.381838
 42
0.013219
  0
VERTEX
  8
0
 10
1193.757563
 20
1735.840649
 42
0.040093
  0
VERTEX
  8
0
 10
1205.000000
 20
1737.357129
 42
0.028713
  0
VERTEX
  8
0
 10
1221.410433
 20
1741.927708
 42
0.019414
  0
VERTEX
  8
0
 10
1239.538436
 20
1748.914402
 42
0.018787
  0
VERTEX
  8
0
 10
1257.870415
 20
1757.640266
 42
0.020587
  0
VERTEX
  8
0
 10
1274.930128
 20
1767.475944
 42
-0.007090
  0
VERTEX
  8
0
 10
1279.004886
 20
1769.974097
 42
-0.010870
  0
VERTEX
  8
0
 10
1282.610681
 20
1772.010310
 42
-0.005588
  0
VERTEX
  8
0
 10
1285.678029
 20
1773.611685
 42
-0.216619
  0
VERTEX
  8
0
 10
1286.430128
 20
1773.644292
 42
-0.078093
  0
VERTEX
  8
0
 10
1288.460353
 20
1772.429558
 42
-0.000265
  0
VERTEX
  8
0
 10
1310.632450
 20
1753.920950
 42
-0.001634
  0
VERTEX
  8
0
 10
1330.900134
 20
1736.871067
 42
-0.005112
  0
VERTEX
  8
0
 10
1344.373929
 20
1725.222406
 42
-0.017239
  0
VERTEX
  8
0
 10
1427.332401
 20
1646.756221
 42
-0.018371
  0
VERTEX
  8
0
 10
1502.877845
 20
1564.352932
 42
-0.018586
  0
VERTEX
  8
0
 10
1571.361405
 20
1477.573617
 42
-0.018620
  0
VERTEX
  8
0
 10
1633.166582
 20
1386.000000
 42
-0.018933
  0
VERTEX
  8
0
 10
1687.439971
 20
1290.900642
 42
-0.018032
  0
VERTEX
  8
0
 10
1735.314147
 20
1190.431104
 42
-0.017781
  0
VERTEX
  8
0
 10
1776.447600
 20
1085.333411
 42
-0.017177
  0
VERTEX
  8
0
 10
1810.529662
 20
976.370853
 42
-0.003966
  0
VERTEX
  8
0
 10
1814.959885
 20
959.774932
 42
-0.001373
  0
VERTEX
  8
0
 10
1821.099079
 20
935.750669
 42
-0.000064
  0
VERTEX
  8
0
 10
1827.870537
 20
908.931266
 42
-0.283763
  0
VERTEX
  8
0
 10
1827.701465
 20
908.395729
 42
-0.043356
  0
VERTEX
  8
0
 10
1827.530868
 20
908.272556
 42
-0.000117
  0
VERTEX
  8
0
 10
1825.062305
 20
906.798014
 42
-0.000718
  0
VERTEX
  8
0
 10
1822.273055
 20
905.138224
 42
-0.000448
  0
VERTEX
  8
0
 10
1819.000000
 20
903.200853
 42
0.029465
  0
VERTEX
  8
0
 10
1813.429335
 20
899.451019
 42
0.020775
  0
VERTEX
  8
0
 10
1807.620128
 20
894.627819
 42
0.011760
  0
VERTEX
  8
0
 10
1799.696996
 20
887.127537
 42
0.002346
  0
VERTEX
  8
0
 10
1785.931444
 20
873.339923
 42
0.006925
  0
VERTEX
  8
0
 10
1764.860764
 20
851.437959
 42
0.037946
  0
VERTEX
  8
0
 10
1754.592027
 20
838.644312
 42
0.057952
  0
VERTEX
  8
0
 10
1748.448652
 20
826.978748
 42
0.030564
  0
VERTEX
  8
0
 10
1743.482044
 20
811.357700
 42
-0.017310
  0
VERTEX
  8
0
 10
1740.206779
 20
800.025043
 42
-0.030496
  0
VERTEX
  8
0
 10
1736.620821
 20
790.966495
 42
-0.035850
  0
VERTEX
  8
0
 10
1732.459612
 20
783.519890
 42
-0.041437
  0
VERTEX
  8
0
 10
1727.451252
 20
777.120690
 42
-0.085029
  0
VERTEX
  8
0
 10
1713.000512
 20
766.038067
 42
-0.073096
  0
VERTEX
  8
0
 10
1694.915584
 20
759.667971
 42
-0.035561
  0
VERTEX
  8
0
 10
1666.067558
 20
756.141546
 42
-0.005433
  0
VERTEX
  8
0
 10
1608.172114
 20
753.843060
 42
-0.009014
  0
VERTEX
  8
0
 10
1555.169691
 20
753.271355
 42
-0.008426
  0
VERTEX
  8
0
 10
1500.973324
 20
754.577378
 42
-0.008477
  0
VERTEX
  8
0
 10
1447.207684
 20
757.693753
 42
-0.009451
  0
VERTEX
  8
0
 10
1395.500000
 20
762.555712
 42
-0.013930
  0
VERTEX
  8
0
 10
1311.085574
 20
774.495612
 42
-0.014927
  0
VERTEX
  8
0
 10
1229.407042
 20
790.901523
 42
-0.015010
  0
VERTEX
  8
0
 10
1149.275716
 20
812.054572
 42
-0.014438
  0
VERTEX
  8
0
 10
1069.500000
 20
838.224560
 42
-0.020710
  0
VERTEX
  8
0
 10
960.823483
 20
882.550195
 42
-0.019956
  0
VERTEX
  8
0
 10
854.803047
 20
936.217334
 42
-0.019907
  0
VERTEX
  8
0
 10
753.137911
 20
998.312465
 42
-0.020350
  0
VERTEX
  8
0
 10
657.500000
 20
1067.869611
 42
-0.002992
  0
VERTEX
  8
0
 10
644.814042
 20
1078.033966
 42
-0.002184
  0
VERTEX
  8
0
 10
630.836261
 20
1089.472933
 42
-0.001671
  0
VERTEX
  8
0
 10
618.140901
 20
1100.026887
 42
-0.014616
  0
VERTEX
  8
0
 10
612.665266
 20
1104.889037
 42
-0.069999
  0
VERTEX
  8
0
 10
607.388281
 20
1111.472681
 42
-0.118135
  0
VERTEX
  8
0
 10
605.303428
 20
1118.195214
 42
-0.087330
  0
VERTEX
  8
0
 10
606.214456
 20
1126.545353
 42
-0.026016
  0
VERTEX
  8
0
 10
610.445754
 20
1138.703504
 42
0.016852
  0
VERTEX
  8
0
 10
614.148377
 20
1148.746059
 42
0.013124
  0
VERTEX
  8
0
 10
617.512501
 20
1159.885871
 42
0.013277
  0
VERTEX
  8
0
 10
620.233639
 20
1170.982116
 42
0.019468
  0
VERTEX
  8
0
 10
621.983186
 20
1180.877118
 42
0.024148
  0
VERTEX
  8
0
 10
622.875041
 20
1191.010601
 42
0.012948
  0
VERTEX
  8
0
 10
623.045900
 20
1203.570298
 42
0.012944
  0
VERTEX
  8
0
 10
622.569890
 20
1216.032137
 42
0.025896
  0
VERTEX
  8
0
 10
621.430722
 20
1225.821517
 42
0.041201
  0
VERTEX
  8
0
 10
615.933302
 20
1247.352719
 42
0.032911
  0
VERTEX
  8
0
 10
606.643408
 20
1269.440106
 42
0.031606
  0
VERTEX
  8
0
 10
594.062272
 20
1291.054918
 42
0.030521
  0
VERTEX
  8
0
 10
578.721900
 20
1311.178213
 42
-0.020258
  0
VERTEX
  8
0
 10
573.883766
 20
1317.261837
 42
-0.211475
  0
VERTEX
  8
0
 10
573.220459
 20
1320.306153
 42
-0.094271
  0
VERTEX
  8
0
 10
574.709483
 20
1323.925869
 42
-0.002483
  0
VERTEX
  8
0
 10
584.325159
 20
1338.500000
 42
-0.024195
  0
VERTEX
  8
0
 10
670.639373
 20
1455.264106
 42
-0.024367
  0
VERTEX
  8
0
 10
767.638284
 20
1562.855376
 42
-0.024364
  0
VERTEX
  8
0
 10
874.656074
 20
1660.509878
 42
-0.024177
  0
VERTEX
  8
0
 10
990.932741
 20
1747.557080
 42
-0.004202
  0
VERTEX
  8
0
 10
1008.781743
 20
1759.401494
 42
-0.002517
  0
VERTEX
  8
0
 10
1030.178041
 20
1773.189382
 42
-0.000366
  0
VERTEX
  8
0
 10
1052.458802
 20
1787.366061
 42
-0.130016
  0
VERTEX
  8
0
 10
1054.328611
 20
1787.959557
 42
-0.165636
  0
VERTEX
  8
0
 10
1054.873868
 20
1787.803048
 42
-0.004109
  0
VERTEX
  8
0
 10
1057.020414
 20
1786.283435
 42
-0.008431
  0
VERTEX
  8
0
 10
1059.520374
 20
1784.417786
 42
-0.005590
  0
SEQEND
  0
POLYLINE
  8
0
 66
1
 70
1
  0
VERTEX
  8
0
 10
202.040809
 20
1515.500000
 42
-0.000027
  0
VERTEX
  8
0
 10
221.548798
 20
1482.779717
 42
-0.000015
  0
VERTEX
  8
0
 10
245.388988
 20
1442.785480
 42
-0.000015
  0
VERTEX
  8
0
 10
269.556215
 20
1402.237097
 42
-0.000024
  0
VERTEX
  8
0
 10
290.158863
 20
1367.663337
 42
0.000000
  0
VERTEX
  8
0
 10
335.941158
 20
1290.826674
 42
0.000000
  0
VERTEX
  8
0
 10
328.668253
 20
1276.142809
 42
0.020475
  0
VERTEX
  8
0
 10
320.396917
 20
1257.567861
 42
0.028119
  0
VERTEX
  8
0
 10
314.615315
 20
1240.223966
 42
0.029545
  0
VERTEX
  8
0
 10
311.017946
 20
1223.049083
 42
0.026801
  0
VERTEX
  8
0
 10
309.319824
 20
1205.000000
 42
0.014333
  0
VERTEX
  8
0
 10
309.185215
 20
1193.349065
 42
0.021412
  0
VERTEX
  8
0
 10
309.795114
 20
1183.184225
 42
0.021943
  0
VERTEX
  8
0
 10
311.255417
 20
1173.296264
 42
0.016175
  0
VERTEX
  8
0
 10
313.701994
 20
1162.500000
 42
0.031757
  0
VERTEX
  8
0
 10
319.803964
 20
1144.005491
 42
0.029434
  0
VERTEX
  8
0
 10
328.331275
 20
1125.940711
 42
0.028426
  0
VERTEX
  8
0
 10
339.244117
 20
1108.406835
 42
0.025307
  0
VERTEX
  8
0
 10
352.478551
 20
1091.500000
 42
-0.025957
  0
VERTEX
  8
0
 10
361.323978
 20
1080.169776
 42
-0.105955
  0
VERTEX
  8
0
 10
364.704046
 20
1072.171456
 42
-0.107880
  0
VERTEX
  8
0
 10
364.478401
 20
1063.566774
 42
-0.027408
  0
VERTEX
  8
0
 10
360.380317
 20
1050.126193
 42
0.012533
  0
VERTEX
  8
0
 10
335.517606
 20
976.505450
 42
0.011422
  0
VERTEX
  8
0
 10
313.538653
 20
899.427667
 42
0.011370
  0
VERTEX
  8
0
 10
295.003406
 20
821.042944
 42
0.012099
  0
VERTEX
  8
0
 10
280.470816
 20
743.500000
 42
-0.002906
  0
VERTEX
  8
0
 10
278.428241
 20
731.374058
 42
-0.015647
  0
VERTEX
  8
0
 10
277.073085
 20
724.823001
 42
-0.029082
  0
VERTEX
  8
0
 10
275.819188
 20
720.672994
 42
-0.063042
  0
VERTEX
  8
0
 10
274.290794
 20
717.719131
 42
-0.022557
  0
VERTEX
  8
0
 10
273.213131
 20
716.297148
 42
-0.032747
  0
VERTEX
  8
0
 10
272.129650
 20
715.155102
 42
-0.034270
  0
VERTEX
  8
0
 10
271.172054
 20
714.384331
 42
-0.236461
  0
VERTEX
  8
0
 10
270.592607
 20
714.299825
 42
-0.198572
  0
VERTEX
  8
0
 10
269.024567
 20
715.652022
 42
-0.000317
  0
VERTEX
  8
0
 10
252.182138
 20
749.098099
 42
-0.002711
  0
VERTEX
  8
0
 10
237.058392
 20
779.589366
 42
-0.008279
  0
VERTEX
  8
0
 10
227.253251
 20
800.500000
 42
-0.021707
  0
VERTEX
  8
0
 10
184.734110
 20
907.419248
 42
-0.024118
  0
VERTEX
  8
0
 10
153.302601
 20
1013.964877
 42
-0.024367
  0
VERTEX
  8
0
 10
132.528490
 20
1122.031313
 42
-0.023132
  0
VERTEX
  8
0
 10
121.914005
 20
1233.500000
 42
-0.011141
  0
VERTEX
  8
0
 10
121.180283
 20
1261.285289
 42
-0.003851
  0
VERTEX
  8
0
 10
121.324067
 20
1301.432714
 42
-0.003805
  0
VERTEX
  8
0
 10
122.078523
 20
1341.362708
 42
-0.012126
  0
VERTEX
  8
0
 10
123.431586
 20
1368.000000
 42
-0.008344
  0
VERTEX
  8
0
 10
128.116531
 20
1418.952567
 42
-0.009553
  0
VERTEX
  8
0
 10
134.334475
 20
1467.462893
 42
-0.009544
  0
VERTEX
  8
0
 10
142.407192
 20
1515.741940
 42
-0.008295
  0
VERTEX
  8
0
 10
152.665909
 20
1566.000000
 42
-0.001123
  0
VERTEX
  8
0
 10
155.851066
 20
1580.230867
 42
-0.016162
  0
VERTEX
  8
0
 10
157.156823
 20
1585.244959
 42
-0.068305
  0
VERTEX
  8
0
 10
158.066622
 20
1587.263366
 42
-0.501084
  0
VERTEX
  8
0
 10
158.965393
 20
1587.337132
 42
-0.045879
  0
VERTEX
  8
0
 10
159.497197
 20
1586.610752
 42
-0.000032
  0
VERTEX
  8
0
 10
171.923905
 20
1565.889658
 42
-0.000383
  0
VERTEX
  8
0
 10
185.755936
 20
1542.781831
 42
-0.000234
  0
SEQEND
  0
POLYLINE
  8
0
 66
1
 70
1
  0
VERTEX
  8
0
 10
562.365392
 20
1056.456116
 42
-0.036911
  0
VERTEX
  8
0
 10
565.543159
 20
1054.585248
 42
-0.007200
  0
VERTEX
  8
0
 10
570.953616
 20
1050.720345
 42
-0.007611
  0
VERTEX
  8
0
 10
577.140927
 20
1046.017629
 42
-0.006981
  0
VERTEX
  8
0
 10
583.365392
 20
1040.993504
 42
0.010620
  0
VERTEX
  8
0
 10
646.646907
 20
990.671490
 42
0.012376
  0
VERTEX
  8
0
 10
708.911619
 20
945.670454
 42
0.012685
  0
VERTEX
  8
0
 10
771.910260
 20
904.781402
 42
0.012392
  0
VERTEX
  8
0
 10
837.387783
 20
866.807036
 42
0.029002
  0
VERTEX
  8
0
 10
988.379811
 20
795.208711
 42
0.028059
  0
VERTEX
  8
0
 10
1148.298817
 20
740.665796
 42
0.027865
  0
VERTEX
  8
0
 10
1314.434861
 20
704.059369
 42
0.027671
  0
VERTEX
  8
0
 10
1484.000000
 20
686.046949
 42
0.011047
  0
VERTEX
  8
0
 10
1542.557649
 20
684.382963
 42
0.009037
  0
VERTEX
  8
0
 10
1605.199399
 20
685.119519
 42
0.009184
  0
VERTEX
  8
0
 10
1666.264352
 20
688.065040
 42
0.013356
  0
VERTEX
  8
0
 10
1719.953855
 20
693.087649
 42
-0.035833
  0
VERTEX
  8
0
 10
1729.188760
 20
693.534530
 42
-0.064675
  0
VERTEX
  8
0
 10
1736.663912
 20
692.386010
 42
-0.071402
  0
VERTEX
  8
0
 10
1743.092194
 20
689.482994
 42
-0.054349
  0
VERTEX
  8
0
 10
1749.130382
 20
684.646544
 42
-0.021496
  0
VERTEX
  8
0
 10
1757.553593
 20
675.493258
 42
-0.001402
  0
VERTEX
  8
0
 10
1780.718383
 20
647.884530
 42
-0.000457
  0
VERTEX
  8
0
 10
1805.570117
 20
618.040575
 42
-0.081947
  0
VERTEX
  8
0
 10
1807.627130
 20
614.529301
 42
-0.179165
  0
VERTEX
  8
0
 10
1807.637175
 20
613.680955
 42
-0.001779
  0
VERTEX
  8
0
 10
1805.544748
 20
607.881933
 42
-0.005536
  0
VERTEX
  8
0
 10
1803.018951
 20
601.190169
 42
-0.003528
  0
VERTEX
  8
0
 10
1799.939758
 20
593.459397
 42
-0.011775
  0
VERTEX
  8
0
 10
1775.103436
 20
536.260798
 42
-0.010812
  0
VERTEX
  8
0
 10
1746.918368
 20
478.624178
 42
-0.010493
  0
VERTEX
  8
0
 10
1715.380767
 20
420.540409
 42
-0.009571
  0
VERTEX
  8
0
 10
1680.484170
 20
362.000000
 42
-0.009305
  0
VERTEX
  8
0
 10
1649.460577
 20
314.159589
 42
-0.006310
  0
VERTEX
  8
0
 10
1612.437849
 20
260.795404
 42
-0.005461
  0
VERTEX
  8
0
 10
1577.244426
 20
212.534444
 42
-0.031197
  0
VERTEX
  8
0
 10
1556.739480
 20
188.356042
 42
-0.044087
  0
VERTEX
  8
0
 10
1532.167597
 20
166.937769
 42
-0.047769
  0
VERTEX
  8
0
 10
1504.844551
 20
150.805422
 42
-0.044277
  0
VERTEX
  8
0
 10
1473.169113
 20
139.264782
 42
-0.029978
  0
VERTEX
  8
0
 10
1435.500000
 20
131.591299
 42
-0.017606
  0
VERTEX
  8
0
 10
1378.368642
 20
125.523483
 42
-0.011666
  0
VERTEX
  8
0
 10
1312.479159
 20
122.406314
 42
-0.011508
  0
VERTEX
  8
0
 10
1245.019938
 20
122.343637
 42
-0.014740
  0
VERTEX
  8
0
 10
1183.000000
 20
125.544374
 42
-0.031573
  0
VERTEX
  8
0
 10
1040.936751
 20
146.167913
 42
-0.032325
  0
VERTEX
  8
0
 10
903.742596
 20
184.420664
 42
-0.031955
  0
VERTEX
  8
0
 10
771.182761
 20
240.533505
 42
-0.029397
  0
VERTEX
  8
0
 10
642.955190
 20
314.479959
 42
-0.011672
  0
VERTEX
  8
0
 10
593.870298
 20
348.438041
 42
-0.013520
  0
VERTEX
  8
0
 10
548.822220
 20
383.083489
 42
-0.013605
  0
VERTEX
  8
0
 10
505.959222
 20
419.914018
 42
-0.012121
  0
VERTEX
  8
0
 10
463.439250
 20
460.432254
 42
-0.007700
  0
VERTEX
  8
0
 10
434.515994
 20
490.268676
 42
-0.009860
  0
VERTEX
  8
0
 10
408.867203
 20
518.657250
 42
-0.009900
  0
VERTEX
  8
0
 10
384.441691
 20
547.939066
 42
-0.007872
  0
VERTEX
  8
0
 10
359.212877
 20
580.467650
 42
-0.007922
  0
VERTEX
  8
0
 10
349.100567
 20
594.392740
 42
-0.024068
  0
VERTEX
  8
0
 10
342.846034
 20
604.278147
 42
-0.034460
  0
VERTEX
  8
0
 10
338.931687
 20
612.441830
 42
-0.042841
  0
VERTEX
  8
0
 10
336.504396
 20
620.500000
 42
-0.026257
  0
VERTEX
  8
0
 10
335.420734
 20
627.460660
 42
-0.031896
  0
VERTEX
  8
0
 10
335.168852
 20
634.056262
 42
-0.018620
  0
VERTEX
  8
0
 10
335.729505
 20
642.967019
 42
-0.003339
  0
VERTEX
  8
0
 10
337.503581
 20
659.522784
 42
-0.013679
  0
VERTEX
  8
0
 10
350.023451
 20
747.864113
 42
-0.013957
  0
VERTEX
  8
0
 10
367.287883
 20
834.793607
 42
-0.013985
  0
VERTEX
  8
0
 10
389.337361
 20
920.456047
 42
-0.013865
  0
VERTEX
  8
0
 10
416.198021
 20
1005.000000
 42
-0.012787
  0
VERTEX
  8
0
 10
422.170467
 20
1020.822610
 42
-0.043531
  0
VERTEX
  8
0
 10
427.190157
 20
1030.619271
 42
-0.066733
  0
VERTEX
  8
0
 10
432.474434
 20
1036.972721
 42
-0.077765
  0
VERTEX
  8
0
 10
439.000000
 20
1041.328041
 42
-0.051486
  0
VERTEX
  8
0
 10
442.347878
 20
1042.476377
 42
-0.030939
  0
VERTEX
  8
0
 10
446.495144
 20
1043.169898
 42
-0.015697
  0
VERTEX
  8
0
 10
452.940188
 20
1043.637603
 42
-0.002542
  0
VERTEX
  8
0
 10
465.500000
 20
1044.089531
 42
0.010133
  0
VERTEX
  8
0
 10
482.548840
 20
1044.962328
 42
0.023219
  0
VERTEX
  8
0
 10
495.319570
 20
1046.474309
 42
0.026251
  0
VERTEX
  8
0
 10
506.905117
 20
1049.025752
 42
0.017027
  0
VERTEX
  8
0
 10
520.000000
 20
1053.123986
 42
-0.003315
  0
VERTEX
  8
0
 10
532.154405
 20
1057.297076
 42
-0.024811
  0
VERTEX
  8
0
 10
538.019558
 20
1058.948671
 42
-0.043059
  0
VERTEX
  8
0
 10
542.654008
 20
1059.596145
 42
-0.022355
  0
VERTEX
  8
0
 10
548.500000
 20
1059.643168
 42
-0.014574
  0
VERTEX
  8
0
 10
552.828237
 20
1059.357934
 42
-0.032757
  0
VERTEX
  8
0
 10
556.075323
 20
1058.832448
 42
-0.036167
  0
VERTEX
  8
0
 10
559.023775
 20
1057.926087
 42
-0.021946
  0
SEQEND
  0
POLYLINE
  8
0
 66
1
 70
1
  0
VERTEX
  8
0
 10
2370.614267
 20
898.426959
 42
-0.006300
  0
VERTEX
  8
0
 10
2356.262214
 20
859.292568
 42
-0.008750
  0
VERTEX
  8
0
 10
2342.355086
 20
824.635502
 42
-0.008995
  0
VERTEX
  8
0
 10
2327.559375
 20
791.243792
 42
-0.007296
  0
VERTEX
  8
0
 10
2310.534247
 20
755.970132
 42
-0.031576
  0
VERTEX
  8
0
 10
2237.628408
 20
630.795003
 42
-0.032469
  0
VERTEX
  8
0
 10
2150.154950
 20
517.020846
 42
-0.031783
  0
VERTEX
  8
0
 10
2046.853175
 20
413.410281
 42
-0.027754
  0
VERTEX
  8
0
 10
1926.649141
 20
318.597698
 42
-0.003989
  0
VERTEX
  8
0
 10
1921.301270
 20
314.904528
 42
-0.006570
  0
VERTEX
  8
0
 10
1916.715018
 20
311.878324
 42
-0.001753
  0
VERTEX
  8
0
 10
1912.720014
 20
309.336678
 42
-0.350508
  0
VERTEX
  8
0
 10
1912.280992
 20
309.385675
 42
-0.223575
  0
VERTEX
  8
0
 10
1912.102076
 20
309.882779
 42
-0.000385
  0
VERTEX
  8
0
 10
1912.981471
 20
319.091826
 42
-0.002734
  0
VERTEX
  8
0
 10
1914.038162
 20
329.472754
 42
-0.001675
  0
VERTEX
  8
0
 10
1915.392008
 20
341.701483
 42
0.000678
  0
VERTEX
  8
0
 10
1918.547702
 20
369.694800
 42
0.002211
  0
VERTEX
  8
0
 10
1920.529770
 20
388.238992
 42
0.003226
  0
VERTEX
  8
0
 10
1921.890371
 20
402.427123
 42
0.004138
  0
VERTEX
  8
0
 10
1922.949956
 20
415.500000
 42
0.005776
  0
VERTEX
  8
0
 10
1924.431283
 20
439.735175
 42
0.001882
  0
VERTEX
  8
0
 10
1926.069990
 20
475.543575
 42
0.001820
  0
VERTEX
  8
0
 10
1927.643661
 20
516.582012
 42
0.001701
  0
VERTEX
  8
0
 10
1928.957715
 20
558.569082
 42
-0.002805
  0
VERTEX
  8
0
 10
1929.401619
 20
571.816871
 42
-0.004113
  0
VERTEX
  8
0
 10
1929.953272
 20
583.463432
 42
-0.002883
  0
VERTEX
  8
0
 10
1930.542514
 20
593.060345
 42
-0.044927
  0
VERTEX
  8
0
 10
1931.056672
 20
596.310786
 42
-0.072598
  0
VERTEX
  8
0
 10
1933.226439
 20
601.565157
 42
-0.065644
  0
VERTEX
  8
0
 10
1936.868281
 20
606.184161
 42
-0.053562
  0
VERTEX
  8
0
 10
1942.273229
 20
610.422589
 42
-0.027855
  0
VERTEX
  8
0
 10
1949.793096
 20
614.553187
 42
0.018521
  0
VERTEX
  8
0
 10
1965.873395
 20
622.999318
 42
0.023127
  0
VERTEX
  8
0
 10
1980.098538
 20
632.055584
 42
0.024527
  0
VERTEX
  8
0
 10
1992.693782
 20
641.875599
 42
0.026795
  0
VERTEX
  8
0
 10
2003.881226
 20
652.612214
 42
0.039928
  0
VERTEX
  8
0
 10
2018.622283
 20
671.120884
 42
0.041698
  0
VERTEX
  8
0
 10
2029.994511
 20
691.480112
 42
0.039892
  0
VERTEX
  8
0
 10
2038.214319
 20
714.258556
 42
0.031236
  0
VERTEX
  8
0
 10
2043.542931
 20
740.000000
 42
-0.009969
  0
VERTEX
  8
0
 10
2044.314521
 20
744.732808
 42
-0.009890
  0
VERTEX
  8
0
 10
2045.275979
 20
749.443750
 42
-0.009787
  0
VERTEX
  8
0
 10
2046.278431
 20
753.528117
 42
-0.037475
  0
VERTEX
  8
0
 10
2047.139409
 20
756.000000
 42
-0.054706
  0
VERTEX
  8
0
 10
2049.987398
 20
760.981234
 42
-0.052049
  0
VERTEX
  8
0
 10
2053.890167
 20
765.318730
 42
-0.050115
  0
VERTEX
  8
0
 10
2058.753274
 20
768.894043
 42
-0.043912
  0
VERTEX
  8
0
 10
2064.445859
 20
771.616140
 42
0.009477
  0
VERTEX
  8
0
 10
2129.008179
 20
797.195867
 42
0.008973
  0
VERTEX
  8
0
 10
2193.753971
 20
825.654665
 42
0.009015
  0
VERTEX
  8
0
 10
2257.109647
 20
856.266910
 42
0.009830
  0
VERTEX
  8
0
 10
2317.500000
 20
888.307221
 42
0.002881
  0
VERTEX
  8
0
 10
2334.723815
 20
898.014264
 42
0.001780
  0
VERTEX
  8
0
 10
2354.868822
 20
909.616385
 42
0.000393
  0
VERTEX
  8
0
 10
2375.293331
 20
921.497940
 42
0.057572
  0
VERTEX
  8
0
 10
2377.487500
 20
923.140751
 42
-0.655394
  0
VERTEX
  8
0
 10
2378.266953
 20
922.808794
 42
-0.069894
  0
VERTEX
  8
0
 10
2377.908617
 20
920.103649
 42
-0.015067
  0
VERTEX
  8
0
 10
2375.778705
 20
913.251951
 42
-0.001847
  0
SEQEND
  0
POLYLINE
  8
0
 66
1
 70
1
  0
VERTEX
  8
0
 10
1862.040490
 20
496.317485
 42
-0.001814
  0
VERTEX
  8
0
 10
1860.187697
 20
463.825351
 42
-0.004016
  0
VERTEX
  8
0
 10
1858.485411
 20
439.057261
 42
-0.004946
  0
VERTEX
  8
0
 10
1856.650057
 20
417.903341
 42
-0.005097
  0
VERTEX
  8
0
 10
1854.412625
 20
397.000000
 42
-0.005123
  0
VERTEX
  8
0
 10
1851.577333
 20
374.807385
 42
-0.001261
  0
VERTEX
  8
0
 10
1846.454547
 20
338.412885
 42
-0.000991
  0
VERTEX
  8
0
 10
1841.167384
 20
302.038392
 42
-0.009661
  0
VERTEX
  8
0
 10
1838.603750
 20
286.703503
 42
-0.031381
  0
VERTEX
  8
0
 10
1836.657372
 20
279.007295
 42
-0.037056
  0
VERTEX
  8
0
 10
1833.840746
 20
272.047020
 42
-0.038957
  0
VERTEX
  8
0
 10
1830.176746
 20
265.885469
 42
-0.042787
  0
VERTEX
  8
0
 10
1825.702156
 20
260.571722
 42
-0.035242
  0
VERTEX
  8
0
 10
1820.978262
 20
256.470618
 42
-0.034253
  0
VERTEX
  8
0
 10
1815.681731
 20
253.030624
 42
-0.021333
  0
VERTEX
  8
0
 10
1808.095217
 20
249.225760
 42
-0.004932
  0
VERTEX
  8
0
 10
1795.000000
 20
243.497602
 42
0.003208
  0
VERTEX
  8
0
 10
1777.292602
 20
235.824616
 42
0.000836
  0
VERTEX
  8
0
 10
1748.939260
 20
223.265189
 42
0.000852
  0
VERTEX
  8
0
 10
1716.777655
 20
208.888764
 42
0.000887
  0
VERTEX
  8
0
 10
1685.087814
 20
194.590792
 42
-0.001142
  0
VERTEX
  8
0
 10
1671.868005
 20
188.634355
 42
-0.001892
  0
VERTEX
  8
0
 10
1660.681955
 20
183.675719
 42
-0.000154
  0
VERTEX
  8
0
 10
1650.651022
 20
179.278169
 42
-0.308858
  0
VERTEX
  8
0
 10
1650.327535
 20
179.339131
 42
-0.341380
  0
VERTEX
  8
0
 10
1650.286825
 20
179.656822
 42
-0.000005
  0
VERTEX
  8
0
 10
1681.442527
 20
232.768844
 42
-0.000354
  0
VERTEX
  8
0
 10
1715.827646
 20
291.289734
 42
-0.000212
  0
VERTEX
  8
0
 10
1756.739722
 20
360.738705
 42
-0.000248
  0
VERTEX
  8
0
 10
1817.531321
 20
463.716640
 42
-0.002107
  0
VERTEX
  8
0
 10
1845.046391
 20
509.828385
 42
-0.001093
  0
VERTEX
  8
0
 10
1862.556993
 20
538.751665
 42
-0.722706
  0
VERTEX
  8
0
 10
1863.806342
 20
538.462579
 42
-0.032653
  0
VERTEX
  8
0
 10
1863.870782
 20
536.033260
 42
-0.000778
  0
VERTEX
  8
0
 10
1863.413989
 20
524.709819
 42
-0.001706
  0
VERTEX
  8
0
 10
1862.812298
 20
511.432951
 42
-0.001158
  0
SEQEND
  0
ENDSEC
  0
EOF
